<?xml version="1.0" encoding="UTF-8" standalone="no"?>
<svg width="166px" height="34px" viewBox="0 0 166 34" version="1.1" xmlns="http://www.w3.org/2000/svg" xmlns:xlink="http://www.w3.org/1999/xlink" xmlns:sketch="http://www.bohemiancoding.com/sketch/ns">
    <!-- Generator: Sketch 3.4.4 (17249) - http://www.bohemiancoding.com/sketch -->
    <title>Move loot</title>
    <desc>Created with Sketch.</desc>
    <defs></defs>
    <g id="Page-1" stroke="none" stroke-width="1" fill="none" fill-rule="evenodd" sketch:type="MSPage">
        <g id="Move-loot" sketch:type="MSArtboardGroup">
            <g id="Group" sketch:type="MSLayerGroup" transform="translate(-85.000000, -42.000000)">
                <g transform="translate(91.000000, 49.000000)" sketch:type="MSShapeGroup">
                    <path d="M54.9301095,9.44285714 L51.4216005,19.3168831 C51.3808281,19.4324675 51.2712359,19.5096104 51.1481394,19.5096104 L49.7312316,19.5096104 C49.609953,19.5096104 49.5019189,19.4345455 49.4590689,19.3215584 L45.7344919,9.39350649 C45.6287952,9.11142857 45.2158766,9.15818182 45.1756236,9.45688312 L44.3134289,15.8620779 C44.2905756,16.0467532 44.2674625,16.347013 44.2674625,16.4394805 C44.2674625,17.4846753 44.7808838,17.7903896 46.1954544,17.8992208 C46.3452997,17.9106494 46.4600858,18.0379221 46.4600858,18.1880519 L46.4600858,19.2194805 C46.4600858,19.3797403 46.3299775,19.5096104 46.1700041,19.5096104 L40.4953609,19.5096104 C40.3351278,19.5096104 40.2052792,19.3797403 40.2052792,19.2194805 L40.2052792,17.9166234 C41.5206454,17.8477922 41.9595336,17.5703896 42.1210653,16.5085714 L43.5714741,6.60597403 C43.574071,6.59012987 43.5748501,6.57324675 43.5748501,6.5574026 C43.5696562,5.42623377 43.1985489,5.01584416 41.8998033,4.91298701 C41.7507371,4.90155844 41.635951,4.77428571 41.635951,4.62467532 L41.635951,3.59402597 C41.635951,3.43376623 41.7663189,3.3038961 41.9265521,3.3038961 L48.0026871,3.3038961 C48.146819,3.3038961 48.2683573,3.41064935 48.2891331,3.55376623 C48.3473053,3.95636364 48.4561184,4.28025974 48.6298558,4.78155844 L51.4652297,12.4075325 C51.5605385,12.6620779 51.9217773,12.6587013 52.0113728,12.4018182 L54.6771644,4.78155844 C54.8509018,4.2787013 54.9763356,3.95428571 55.0399614,3.54987013 C55.061776,3.40883117 55.1830545,3.3038961 55.3256283,3.3038961 L61.2882756,3.3038961 C61.4487685,3.3038961 61.5786171,3.43376623 61.5786171,3.59402597 L61.5786171,4.62467532 C61.4765561,4.73506494 61.4144885,4.8025974 61.3126872,4.91350649 C60.0180967,5.01636364 59.6675055,5.42701299 59.662831,6.5574026 C59.6623116,6.57324675 59.66361,6.59012987 59.6656876,6.60545455 L61.0937624,16.5085714 C61.243348,17.5587013 61.6718484,17.812987 62.7669914,17.8994805 C62.9170964,17.9111688 63.0324019,18.0379221 63.0324019,18.1880519 L63.0324019,19.2194805 C63.0324019,19.3797403 62.9025533,19.5096104 62.7420605,19.5096104 L54.5517307,19.5096104 C54.3914975,19.5096104 54.2613892,19.3797403 54.2613892,19.2194805 L54.2613892,18.1885714 C54.2613892,18.0379221 54.3764351,17.9106494 54.5262804,17.8994805 C55.9605879,17.7906494 56.4542722,17.4854545 56.4542722,16.4394805 C56.4542722,16.347013 56.4314189,16.0467532 56.4083058,15.8620779 L55.4907957,9.49844156 C55.4474263,9.19844156 55.0313914,9.1574026 54.9301095,9.44285714" id="Fill-1" fill="#4E504F"></path>
                    <path d="M71.1510553,13.8537662 C71.1510553,10.6220779 70.2974306,8.19792208 68.7969003,8.19792208 C67.5272408,8.19792208 66.8577414,9.99844156 66.8577414,12.4688312 C66.8577414,15.7005195 67.7118855,18.1015584 69.2352691,18.1015584 C70.4815559,18.1015584 71.1510553,16.3238961 71.1510553,13.8537662 M62.4034153,13.3690909 C62.4034153,9.21402597 65.2883913,6.58181818 69.1893027,6.58181818 C73.0899544,6.58181818 75.6284944,9.35246753 75.6284944,12.9303896 C75.6284944,17.1085714 72.720665,19.7407792 68.8200133,19.7407792 C64.9419553,19.7407792 62.4034153,16.9701299 62.4034153,13.3690909" id="Fill-2" fill="#4E504F"></path>
                    <path d="M88.8029325,8.13220779 C88.8029325,8.25298701 88.72788,8.36285714 88.6143924,8.4038961 C87.9685255,8.63974026 87.700518,8.79480519 87.5106793,9.26 L82.6273335,19.4374026 C82.5782507,19.5381818 82.4767091,19.6020779 82.365299,19.6020779 L81.4103925,19.6020779 C81.30106,19.6020779 81.2013363,19.5407792 81.1519938,19.4431169 L75.9931092,9.26 C75.7601609,8.81558442 75.5466898,8.64285714 74.8906947,8.40363636 C74.7766876,8.36207792 74.7003367,8.25272727 74.7003367,8.13142857 L74.7003367,7.10311688 C74.7003367,6.94311688 74.8301853,6.81272727 74.9904184,6.81272727 L82.1650725,6.81272727 C82.3258251,6.81272727 82.4556737,6.94311688 82.4556737,7.10311688 L82.4556737,8.08415584 C82.4556737,8.22779221 82.3494575,8.35038961 82.2071435,8.37142857 C81.2067899,8.51714286 80.9094366,8.65402597 80.9094366,9.16753247 C80.9094366,9.35220779 80.9551433,9.56 81.1169347,9.90649351 L82.8187303,13.8309091 C82.9187137,14.0620779 83.2451531,14.0646753 83.349032,13.8355844 L85.1328919,9.90649351 C85.2713105,9.53688312 85.3175366,9.35220779 85.3175366,9.16753247 C85.3175366,8.65402597 85.0201833,8.51714286 84.0193104,8.37142857 C83.8775157,8.35038961 83.7715593,8.22779221 83.7715593,8.08415584 L83.7715593,7.10311688 C83.7715593,6.94311688 83.9014079,6.81272727 84.0613813,6.81272727 L88.5128508,6.81272727 C88.6730839,6.81272727 88.8029325,6.94311688 88.8029325,7.10311688 L88.8029325,8.13220779" id="Fill-3" fill="#4E504F"></path>
                    <path d="M91.8683981,11.3836364 L95.0309904,11.3836364 C95.1943399,11.3836364 95.328084,11.2488312 95.3213318,11.0854545 C95.2478375,9.35402597 94.7113031,8.17506494 93.5756474,8.17506494 C92.3441633,8.17506494 91.780101,9.46883117 91.5803939,11.054026 C91.5585793,11.2285714 91.6925831,11.3836364 91.8683981,11.3836364 M99.0453894,11.8685714 L99.0453894,12.4784416 C99.0453894,12.638961 98.9155409,12.7688312 98.7555674,12.7688312 L91.7977604,12.7688312 C91.6284379,12.7688312 91.4972908,12.9145455 91.5079384,13.0838961 C91.6390855,15.1612987 93.0715751,16.4394805 95.0065788,16.4394805 C96.3816754,16.4394805 97.3968317,15.9592208 98.1637175,15.0732468 C98.2613636,14.96 98.4247132,14.9327273 98.5485887,15.0153247 L98.9215139,15.2641558 C99.0233152,15.3316883 99.0739561,15.4581818 99.0435716,15.5774026 C98.3943286,18.0966234 96.5234701,19.7405195 93.6444671,19.7405195 C90.205557,19.7405195 87.6433846,17.4090909 87.6433846,13.5768831 C87.6433846,9.35220779 90.5055073,6.58233766 93.9677901,6.58233766 C97.3145077,6.58233766 99.0453894,8.98285714 99.0453894,11.8685714" id="Fill-4" fill="#4E504F"></path>
                    <path d="M110.469209,17.5574026 C110.469209,17.7176623 110.599057,17.8475325 110.759291,17.8475325 L112.776618,17.8475325 C114.209108,17.8475325 114.566451,17.2654545 116.38537,14.0937662 C116.43679,14.0036364 116.534177,13.9462338 116.638315,13.9462338 L118.023281,13.9462338 C118.201433,13.9462338 118.337774,14.1057143 118.309986,14.2815584 L117.524402,19.2646753 C117.502068,19.4057143 117.38079,19.5096104 117.237437,19.5096104 L104.31958,19.5096104 C104.159346,19.5096104 104.028978,19.3797403 104.028978,19.2197403 L104.028978,18.1909091 C104.028978,18.0392208 104.1474,17.9119481 104.298544,17.9015584 C105.608976,17.8101299 105.852832,17.4955844 105.852832,16.3467532 L105.852832,6.46675325 C105.852832,5.33974026 105.608976,5.02649351 104.298544,4.93532468 C104.1474,4.92441558 104.028978,4.79766234 104.028978,4.64597403 L104.028978,3.59428571 C104.028978,3.43402597 104.159346,3.30415584 104.31958,3.30415584 L111.955975,3.30415584 C112.116728,3.30415584 112.246576,3.43402597 112.246576,3.59428571 L112.246576,4.64623377 C112.246576,4.79792208 112.128154,4.92493506 111.977011,4.93532468 C110.692548,5.02727273 110.469209,5.34077922 110.469209,6.46675325 L110.469209,17.5574026" id="Fill-5" fill="#4E504F"></path>
                    <path d="M127.617533,13.8537662 C127.617533,10.6220779 126.76313,8.19792208 125.263119,8.19792208 C123.993719,8.19792208 123.324219,9.99844156 123.324219,12.4688312 C123.324219,15.7005195 124.178363,18.1015584 125.701487,18.1015584 C126.948034,18.1015584 127.617533,16.3238961 127.617533,13.8537662 M118.869374,13.3690909 C118.869374,9.21402597 121.75461,6.58181818 125.655261,6.58181818 C129.555913,6.58181818 132.094972,9.35246753 132.094972,12.9303896 C132.094972,17.1085714 129.186883,19.7407792 125.285972,19.7407792 C121.408433,19.7407792 118.869374,16.9701299 118.869374,13.3690909" id="Fill-6" fill="#4E504F"></path>
                    <path d="M141.395767,13.8537662 C141.395767,10.6220779 140.541623,8.19792208 139.041353,8.19792208 C137.771953,8.19792208 137.102454,9.99844156 137.102454,12.4688312 C137.102454,15.7005195 137.956598,18.1015584 139.479462,18.1015584 C140.726268,18.1015584 141.395767,16.3238961 141.395767,13.8537662 M132.647608,13.3690909 C132.647608,9.21402597 135.532844,6.58181818 139.433495,6.58181818 C143.334147,6.58181818 145.873206,9.35246753 145.873206,12.9303896 C145.873206,17.1085714 142.965117,19.7407792 139.064206,19.7407792 C135.186667,19.7407792 132.647608,16.9701299 132.647608,13.3690909" id="Fill-7" fill="#4E504F"></path>
                    <path d="M151.798712,6.93168831 L154.28791,6.93168831 C154.448143,6.93168831 154.578251,7.06155844 154.578251,7.22181818 L154.578251,8.37272727 C154.578251,8.53324675 154.448143,8.66311688 154.28791,8.66311688 L151.798712,8.66311688 C151.638479,8.66311688 151.50863,8.79298701 151.50863,8.95324675 L151.50863,15.7732468 C151.50863,16.8579221 151.946999,17.3657143 152.939562,17.3657143 C153.405978,17.3657143 153.905635,17.2514286 154.382699,17.0496104 C154.530467,16.9872727 154.700828,17.0631169 154.75952,17.2127273 L155.038434,17.9244156 C155.081284,18.0337662 155.055574,18.1602597 154.971173,18.2412987 C153.862266,19.3064935 152.47808,19.8594805 150.839131,19.8594805 C148.369151,19.8594805 147.123124,18.7049351 147.123124,16.1888312 L147.123124,8.95324675 C147.123124,8.79298701 146.993275,8.66311688 146.833042,8.66311688 L145.890082,8.66311688 C145.729849,8.66311688 145.6,8.53324675 145.6,8.37272727 L145.6,7.59766234 C145.6,7.47506494 145.67713,7.36935065 145.791916,7.32675325 C147.275566,6.78285714 148.913217,5.46181818 150.061598,4.10207792 C150.115874,4.03688312 150.195342,4 150.280263,4 L151.218289,4 C151.378522,4 151.50863,4.12987013 151.50863,4.29012987 L151.50863,6.64155844 C151.50863,6.80181818 151.638479,6.93168831 151.798712,6.93168831" id="Fill-8" fill="#4E504F"></path>
                    <path d="M27.6429473,7.38207792 C23.8370851,7.38207792 21.9010426,2.41766234 21.9010426,2.41766234 C23.4078056,2.11220779 26.0286696,1.36415584 27.7694198,1.36415584 C29.430443,1.36415584 30.777752,2.71168831 30.777752,4.37324675 C30.777752,6.03428571 29.8511525,7.38207792 27.6429473,7.38207792 L27.6429473,7.38207792 Z M24.30454,12.7787013 C22.8962022,14.2335065 21.0074246,15.0337662 18.983085,15.0337662 C17.4350301,15.0337662 15.9641053,14.5605195 14.7237915,13.6862338 L19.2967992,13.6862338 C20.7981086,13.6283117 22.2087837,13.0122078 23.2704258,11.9509091 L26.4766473,8.74363636 L28.3384164,8.74363636 L24.30454,12.7787013 L24.30454,12.7787013 Z M21.0840352,18.161039 L19.0435945,18.161039 L17.0688571,16.1864935 C17.6934288,16.3431169 18.6945615,16.4197403 19.3131601,16.3896104 L21.0840352,18.161039 L21.0840352,18.161039 Z M19.6131104,8.7161039 C19.6131104,5.77584416 17.0363949,3.77922078 14.9518056,3.77922078 L8.48456668,3.77922078 L7.11466404,2.41766234 L14.4983744,2.41766234 C16.8359087,2.41766234 18.3839636,2.73922078 19.7476335,4.10363636 C21.1886932,5.54493506 22.9408701,7.81376623 24.8460086,8.44649351 L22.3056508,10.9875325 C21.4912404,11.8020779 20.4103807,12.2779221 19.258364,12.3220779 L18.0510318,12.3220779 C18.089467,12.285974 19.6131104,10.9987013 19.6131104,8.7161039 L19.6131104,8.7161039 Z M34.0559096,3.49844156 L32.053904,3.49844156 C31.6469585,1.50467532 29.881537,0 27.7694198,0 C25.8912898,0 24.051595,0.450909091 21.1697353,1.05324675 L0,1.05402597 C0,1.80519481 0.610807776,2.41558442 1.36133264,2.41558442 L5.19394367,2.41506494 L6.55969116,3.77922078 L2.74188286,3.77948052 C2.74188286,4.52493506 3.34412063,5.13064935 4.08711427,5.13922078 L4.08685458,5.14051948 L4.09776186,5.14051948 C4.09957974,5.14051948 4.10139762,5.14103896 4.1029558,5.14103896 L14.9518056,5.14051948 C16.4287035,5.14051948 18.2520375,6.58441558 18.2520375,8.7161039 C18.2520375,10.6083117 16.6569774,12.2997403 14.9518056,12.2997403 C13.7031816,12.2997403 12.9939486,12.1098701 12.1470761,11.2633766 L7.37851638,6.50467532 L5.45052449,6.50467532 L18.4774546,19.5223377 L26.0619109,19.5223377 C26.0619109,18.7719481 25.4511031,18.161039 24.7005782,18.161039 L23.0117674,18.161039 L21.0128782,16.1615584 C22.6245589,15.7818182 24.0954838,14.954026 25.2752881,13.7358442 C25.2752881,13.7358442 32.2710108,6.7387013 34.1494005,4.86025974 L35.4167228,4.86025974 C35.4167228,4.10935065 34.8064344,3.49844156 34.0559096,3.49844156 L34.0559096,3.49844156 Z" id="Fill-9" fill="#F35251"></path>
                    <path d="M29.2689114,4.27584416 C29.2689114,3.85792208 28.9297469,3.51896104 28.5118941,3.51896104 C28.0940413,3.51896104 27.7551365,3.85792208 27.7551365,4.27584416 C27.7551365,4.69402597 28.0940413,5.03298701 28.5118941,5.03298701 C28.9297469,5.03298701 29.2689114,4.69402597 29.2689114,4.27584416" id="Fill-10" fill="#F35251"></path>
                </g>
            </g>
        </g>
    </g>
</svg>